# This file uses centimeters as units for non-parametric coordinates.

mtllib boulder_polar_grey.mtl
v 0.702853 0.612362 -0.681712
v 0.473695 1.328016 -0.429245
v 0.390730 1.400631 -0.375898
v 0.367669 1.467287 -0.210352
v 0.540965 1.373832 -0.246381
v 0.526363 1.409315 -0.049934
v 0.684172 1.271192 -0.151406
v 0.683777 1.235347 -0.268526
v 0.659964 1.233822 -0.325756
v 0.312819 0.809597 -0.898412
v -0.076242 1.095065 -0.826812
v -0.315722 1.359728 -0.494261
v -0.219302 1.508566 0.200158
v 0.112993 1.387176 0.536062
v 0.522587 1.133404 0.612346
v 0.853031 0.844183 0.399872
v 0.978105 0.629985 -0.020203
v 0.850035 0.572627 -0.487424
v 0.072119 -0.319307 -0.394446
v -0.317915 -0.122072 -0.611146
v -0.577750 -0.225095 0.049633
v -0.660716 -0.152479 0.102979
v -0.706976 0.163396 -0.539546
v -0.540965 -0.224308 0.246381
v -0.683777 -0.085824 0.268526
v -0.978105 0.519539 0.020203
v -0.623010 -0.094276 0.374536
v -0.850035 0.576897 0.487424
v -0.108146 0.201735 0.899612
v -0.312819 0.339927 0.898412
v -0.367273 -0.281919 0.327472
v 0.222297 -0.087486 0.687137
v -0.391482 -0.319288 0.153122
v 0.347371 -0.301684 0.267063
v 0.478959 0.045436 -0.665102
v 0.250148 0.146366 -0.840150
v -0.484055 0.642089 -0.844456
v -0.819189 1.082305 -0.152568
v -0.660887 1.153204 0.424949
v -0.250148 1.003157 0.840149
v 0.256139 0.689478 0.934442
v 0.484055 0.507434 0.844456
v 0.780068 0.180293 0.433400
v 0.778122 0.003825 -0.143199
vt 0.000000 0.700000
vt 1.000000 0.700000
vt 0.025000 1.000000
vt 0.975000 1.000000
vt 0.162500 0.950000
vt 0.225000 1.000000
vt 0.262500 0.950000
vt 0.325000 1.000000
vt 0.412500 0.950000
vt 0.475000 1.000000
vt 0.612500 0.950000
vt 0.675000 1.000000
vt 0.812500 0.950000
vt 0.875000 1.000000
vt 0.912500 0.950000
vt 0.962500 0.950000
vt 0.975000 0.000000
vt 0.925000 0.000000
vt 0.875000 0.000000
vt 0.125000 0.000000
vt 0.075000 0.000000
vt 0.125000 1.000000
vt 0.575000 1.000000
vt 0.925000 1.000000
vt 0.000000 0.300000
vt 1.000000 0.300000
vt 0.100000 0.300000
vt 0.137500 0.050000
vt 0.175000 0.000000
vt 0.237500 0.050000
vt 0.200000 0.300000
vt 0.275000 0.000000
vt 0.387500 0.050000
vt 0.350000 0.300000
vt 0.425000 0.000000
vt 0.487500 0.050000
vt 0.450000 0.300000
vt 0.525000 0.000000
vt 0.650000 0.300000
vt 0.600000 0.300000
vt 0.675000 0.000000
vt 0.787500 0.050000
vt 0.750000 0.300000
vt 0.937500 0.050000
vt 0.850000 0.300000
vt 0.000000 0.500000
vt 1.000000 0.500000
vt 0.050000 0.500000
vt 0.200000 0.500000
vt 0.350000 0.500000
vt 0.450000 0.500000
vt 0.550000 0.500000
vt 0.650000 0.500000
vt 0.700000 0.500000
vt 0.800000 0.500000
vt 0.900000 0.500000
vt 0.100000 0.700000
vt 0.200000 0.700000
vt 0.300000 0.700000
vt 0.450000 0.700000
vt 0.550000 0.700000
vt 0.650000 0.700000
vt 0.750000 0.700000
vt 0.850000 0.700000
vt 0.950000 0.700000
vn 0.094198 -0.943397 -0.318009
vn -0.430409 -0.847078 0.311780
vn -0.328190 -0.673598 -0.662236
vn -0.601103 -0.791466 -0.110714
vn -0.796442 -0.320290 -0.512928
vn -0.800324 -0.598542 -0.035052
vn -0.990542 -0.050823 -0.127449
vn -0.792040 -0.540659 0.283479
vn -0.802995 0.033027 0.595070
vn -0.668473 -0.510119 0.541224
vn -0.478686 -0.140176 0.866724
vn -0.075837 -0.514493 0.854134
vn 0.190118 -0.690364 0.698035
vn -0.222065 -0.893797 0.389633
vn 0.356152 -0.916967 0.179799
vn -0.185591 -0.979411 0.079438
vn 0.529193 -0.612396 -0.587304
vn 0.060284 -0.333311 -0.940888
vn -0.529921 0.058677 -0.846015
vn -0.832644 0.481717 -0.273226
vn -0.683396 0.561234 0.466891
vn -0.323472 0.412398 0.851642
vn 0.214251 0.188763 0.958366
vn 0.558764 -0.125515 0.819773
vn 0.799514 -0.404302 0.444204
vn 0.764537 -0.626566 -0.151322
vn 0.649355 0.156210 -0.744269
vn 0.276839 0.217254 -0.936035
vn -0.087947 0.522544 -0.848065
vn -0.405716 0.790259 -0.459222
vn -0.223883 0.968026 0.113145
vn 0.118397 0.847856 0.516838
vn 0.541399 0.587657 0.601287
vn 0.867276 0.309878 0.389626
vn 0.998950 0.042751 -0.016456
vn 0.907288 -0.041425 -0.418465
vn 0.556096 0.811592 -0.179097
vn 0.413715 0.707541 -0.572910
vn 0.264306 0.838311 -0.476841
vn 0.145424 0.967919 -0.204904
vn 0.508561 0.853949 0.110171
vn 0.792753 0.605209 -0.072563
vn 0.876394 0.478317 0.056086
vn 0.396560 0.509004 -0.763973
g pSphere1
usemtl phong2SG
f 19/25/1 24/21/2 20/27/3
f 21/28/4 23/31/5 20/27/3
f 21/28/4 24/29/2 23/31/5
f 24/29/2 22/30/6 23/31/5
f 22/30/6 26/34/7 23/31/5
f 22/30/6 24/32/2 26/34/7
f 24/32/2 25/33/8 26/34/7
f 25/33/8 28/37/9 26/34/7
f 25/33/8 24/35/2 28/37/9
f 24/35/2 27/36/10 28/37/9
f 27/36/10 30/40/11 28/37/9
f 27/36/10 24/38/2 30/40/11
f 24/38/2 29/39/12 30/40/11
f 24/41/2 32/43/13 29/39/12
f 24/41/2 31/42/14 32/43/13
f 31/42/14 34/45/15 32/43/13
f 24/19/2 34/45/15 31/42/14
f 24/18/2 33/44/16 34/45/15
f 33/44/16 19/26/1 34/45/15
f 24/17/2 19/26/1 33/44/16
f 19/25/1 20/27/3 35/46/17
f 35/46/17 20/27/3 36/48/18
f 36/48/18 20/27/3 37/49/19
f 20/27/3 23/31/5 37/49/19
f 23/31/5 26/34/7 37/49/19
f 37/49/19 26/34/7 38/50/20
f 26/34/7 28/37/9 38/50/20
f 38/50/20 28/37/9 39/51/21
f 28/37/9 30/40/11 39/51/21
f 39/51/21 30/40/11 40/52/22
f 40/52/22 30/40/11 41/53/23
f 30/40/11 29/39/12 41/53/23
f 29/39/12 32/43/13 41/53/23
f 41/53/23 32/43/13 42/54/24
f 42/54/24 32/43/13 43/55/25
f 32/43/13 34/45/15 43/55/25
f 43/55/25 34/45/15 44/56/26
f 34/45/15 19/26/1 44/56/26
f 44/56/26 19/26/1 35/47/17
f 35/46/17 36/48/18 1/1/27
f 1/1/27 36/48/18 10/57/28
f 36/48/18 37/49/19 10/57/28
f 10/57/28 37/49/19 11/58/29
f 37/49/19 38/50/20 12/59/30
f 11/58/29 37/49/19 12/59/30
f 38/50/20 39/51/21 13/60/31
f 12/59/30 38/50/20 13/60/31
f 39/51/21 40/52/22 14/61/32
f 13/60/31 39/51/21 14/61/32
f 40/52/22 41/53/23 15/62/33
f 14/61/32 40/52/22 15/62/33
f 41/53/23 42/54/24 16/63/34
f 15/62/33 41/53/23 16/63/34
f 42/54/24 43/55/25 16/63/34
f 16/63/34 43/55/25 17/64/35
f 43/55/25 44/56/26 17/64/35
f 17/64/35 44/56/26 18/65/36
f 44/56/26 35/47/17 18/65/36
f 18/65/36 35/47/17 1/2/27
f 10/57/28 5/3/37 1/1/27
f 2/5/38 11/58/29 5/6/37
f 11/58/29 2/5/38 10/57/28
f 5/6/37 11/58/29 3/7/39
f 3/7/39 12/59/30 5/8/37
f 12/59/30 3/7/39 11/58/29
f 13/60/31 4/9/40 12/59/30
f 12/59/30 4/9/40 5/8/37
f 13/60/31 5/10/37 4/9/40
f 14/61/32 5/10/37 13/60/31
f 15/62/33 6/11/41 14/61/32
f 15/62/33 5/12/37 6/11/41
f 16/63/34 5/12/37 15/62/33
f 17/64/35 7/13/42 16/63/34
f 16/63/34 7/13/42 5/12/37
f 7/13/42 17/64/35 5/14/37
f 18/65/36 8/15/43 17/64/35
f 17/64/35 8/15/43 5/14/37
f 18/65/36 9/16/44 8/15/43
f 18/65/36 1/2/27 9/16/44
f 9/16/44 1/2/27 5/4/37
f 24/20/2 21/28/4 20/27/3
f 10/57/28 2/5/38 5/22/37
f 14/61/32 6/11/41 5/23/37
f 8/15/43 9/16/44 5/24/37
