# This file uses centimeters as units for non-parametric coordinates.

mtllib huge_water_tile.mtl
v -150.000000 -0.000000 150.000000
v 150.000000 -0.000000 150.000000
v -150.000000 0.000000 -150.000000
v 150.000000 0.000000 -150.000000
vt -0.000000 -0.000000
vt 50.000000 -0.000000
vt -0.000000 12.500000
vt 50.000000 12.500000
vn 0.000000 1.000000 0.000000
vn 0.000000 1.000000 0.000000
vn 0.000000 1.000000 0.000000
vn 0.000000 1.000000 0.000000
g pPlane2
usemtl initialShadingGroup
f 1/1/1 2/2/2 3/3/3
f 3/3/3 2/2/2 4/4/4
