# This file uses centimeters as units for non-parametric coordinates.

mtllib arrow.mtl
v -0.141421 0.100000 -0.100000
v -0.141421 0.100000 0.100000
v -0.141421 -0.100000 0.100000
v -0.141421 -0.100000 -0.100000
v 0.141421 0.000000 0.000000
vt 0.500000 0.000000
vt 0.250000 0.250000
vt 0.500000 0.500000
vt 0.750000 0.250000
vt 0.250000 0.500000
vt 0.375000 0.500000
vt 0.500000 0.500000
vt 0.625000 0.500000
vt 0.750000 0.500000
vt 0.500000 1.000000
vn -1.000000 -0.000000 0.000000
vn -1.000000 -0.000000 0.000000
vn -1.000000 -0.000000 0.000000
vn -1.000000 -0.000000 -0.000000
vn 0.333333 0.942809 -0.000000
vn 0.333333 0.942809 -0.000000
vn 0.333333 0.942809 -0.000000
vn 0.333333 0.000000 0.942809
vn 0.333333 0.000000 0.942809
vn 0.333333 0.000000 0.942809
vn 0.333333 -0.942809 0.000000
vn 0.333333 -0.942809 0.000000
vn 0.333333 -0.942809 0.000000
vn 0.333333 -0.000000 -0.942809
vn 0.333333 -0.000000 -0.942809
vn 0.333333 -0.000000 -0.942809
g pPyramid1
usemtl phong3SG
f 1/1/1 4/4/2 2/2/3
f 2/2/3 4/4/2 3/3/4
f 1/5/5 2/6/6 5/10/7
f 2/6/8 3/7/9 5/10/10
f 3/7/11 4/8/12 5/10/13
f 4/8/14 1/9/15 5/10/16
v -0.417717 -0.045000 0.045000
v -0.017717 -0.045000 0.045000
v -0.417717 0.045000 0.045000
v -0.017717 0.045000 0.045000
v -0.417717 0.045000 -0.045000
v -0.017717 0.045000 -0.045000
v -0.417717 -0.045000 -0.045000
v -0.017717 -0.045000 -0.045000
vt 0.375000 0.000000
vt 0.625000 0.000000
vt 0.375000 0.250000
vt 0.625000 0.250000
vt 0.375000 0.500000
vt 0.625000 0.500000
vt 0.375000 0.750000
vt 0.625000 0.750000
vt 0.375000 1.000000
vt 0.625000 1.000000
vt 0.875000 0.000000
vt 0.875000 0.250000
vt 0.125000 0.000000
vt 0.125000 0.250000
vn 0.000000 0.000000 1.000000
vn 0.000000 0.000000 1.000000
vn 0.000000 0.000000 1.000000
vn 0.000000 0.000000 1.000000
vn 0.000000 1.000000 0.000000
vn 0.000000 1.000000 0.000000
vn 0.000000 1.000000 0.000000
vn 0.000000 1.000000 0.000000
vn 0.000000 0.000000 -1.000000
vn 0.000000 0.000000 -1.000000
vn 0.000000 0.000000 -1.000000
vn 0.000000 0.000000 -1.000000
vn 0.000000 -1.000000 0.000000
vn 0.000000 -1.000000 0.000000
vn 0.000000 -1.000000 0.000000
vn 0.000000 -1.000000 0.000000
vn 1.000000 0.000000 0.000000
vn 1.000000 0.000000 0.000000
vn 1.000000 0.000000 0.000000
vn 1.000000 0.000000 0.000000
vn -1.000000 0.000000 0.000000
vn -1.000000 0.000000 0.000000
vn -1.000000 0.000000 0.000000
vn -1.000000 0.000000 0.000000
g pCube1
f 6/11/17 7/12/18 8/13/19
f 8/13/19 7/12/18 9/14/20
f 8/13/21 9/14/22 10/15/23
f 10/15/23 9/14/22 11/16/24
f 10/15/25 11/16/26 12/17/27
f 12/17/27 11/16/26 13/18/28
f 12/17/29 13/18/30 6/19/31
f 6/19/31 13/18/30 7/20/32
f 7/12/33 13/21/34 9/14/35
f 9/14/35 13/21/34 11/22/36
f 12/23/37 6/11/38 10/24/39
f 10/24/39 6/11/38 8/13/40
