# This file uses centimeters as units for non-parametric coordinates.

mtllib tile_down_x_siding_obverse.mtl
v 0.000000 -2.000000 6.000000
v 6.000000 0.000000 6.000000
v 0.000000 -0.000000 0.000000
v 6.000000 2.000000 0.000000
vt 0.000000 0.000000
vt 1.000000 0.000000
vt 0.000000 1.000000
vt 1.000000 1.000000
vn -0.305386 0.903363 0.301121
vn -0.303694 0.904497 0.299424
vn -0.303740 0.904467 0.299470
vn -0.302037 0.905600 0.297762
g pPlane2
usemtl phong2SG
f 1/1/1 2/2/2 3/3/3
f 3/3/3 2/2/2 4/4/4
