# This file uses centimeters as units for non-parametric coordinates.

mtllib tile_flat.mtl
v 0.000000 -0.000000 6.000000
v 1.800000 -0.000000 6.000000
v 6.000000 -0.000000 6.000000
v 0.000000 0.000000 0.000000
v 1.800000 0.000000 0.000000
v 6.000000 0.000000 0.000000
vt 0.000000 0.000000
vt 0.300000 0.000000
vt 1.000000 0.000000
vt 0.000000 1.000000
vt 0.300000 1.000000
vt 1.000000 1.000000
vn 0.000000 1.000000 0.000000
vn 0.000000 1.000000 0.000000
vn 0.000000 1.000000 0.000000
vn 0.000000 1.000000 0.000000
vn 0.000000 1.000000 0.000000
vn 0.000000 1.000000 0.000000
g pPlane1
usemtl phong2SG
f 1/1/1 2/2/2 4/4/3
f 4/4/3 2/2/2 5/5/4
f 2/2/2 3/3/5 5/5/4
f 5/5/4 3/3/5 6/6/6
